HIERARCHY
ROOT SpineBase
{
  OFFSET 0.000000 0.000000 0.000000
  CHANNELS 6 Xposition Yposition Zposition Zrotation Xrotation Yrotation
  JOINT SpineMid
  {
    OFFSET -0.000000 33.664554 -0.000000
    CHANNELS 3 Zrotation Xrotation Yrotation
    JOINT SpineShoulder
    {
      OFFSET 0.034975 24.599416 -0.909421
      CHANNELS 3 Zrotation Xrotation Yrotation
      JOINT Neck
      {
        OFFSET 0.079616 8.133322 -0.662856
        CHANNELS 3 Zrotation Xrotation Yrotation
        JOINT Head
        {
          OFFSET 2.963877 10.259917 4.975859
          CHANNELS 3 Zrotation Xrotation Yrotation
          End Site
          {
            OFFSET 0 0 0
          }
        }
      }
      JOINT ShoulderLeft
      {
        OFFSET -3.056059 -4.981611 -15.278839
        CHANNELS 3 Zrotation Xrotation Yrotation
        JOINT ElbowLeft
        {
          OFFSET -6.295005 -23.986685 -12.249484
          CHANNELS 3 Zrotation Xrotation Yrotation
          JOINT WristLeft
          {
            OFFSET 5.173832 -21.599382 1.708964
            CHANNELS 3 Zrotation Xrotation Yrotation
            JOINT HandLeft
            {
              OFFSET 2.125343 -5.393457 6.349665
              CHANNELS 3 Zrotation Xrotation Yrotation
              JOINT HandTipLeft
              {
                OFFSET 1.438703 -7.525098 0.538169
                CHANNELS 3 Zrotation Xrotation Yrotation
                End Site
                {
                  OFFSET 0 0 0
                }
              }
              JOINT ThumbLeft
              {
                OFFSET 2.272110 4.275754 2.196690
                CHANNELS 3 Zrotation Xrotation Yrotation
                End Site
                {
                  OFFSET 0 0 0
                }
              }
            }
          }
        }
      }
      JOINT ShoulderRight
      {
        OFFSET 9.101147 -8.542555 21.142398
        CHANNELS 3 Zrotation Xrotation Yrotation
        JOINT ElbowRight
        {
          OFFSET -10.861466 -9.560740 -28.432913
          CHANNELS 3 Zrotation Xrotation Yrotation
          JOINT WristRight
          {
            OFFSET -2.792312 -11.627810 -29.027887
            CHANNELS 3 Zrotation Xrotation Yrotation
            JOINT HandRight
            {
              OFFSET -1.003941 -3.917645 -9.257109
              CHANNELS 3 Zrotation Xrotation Yrotation
              JOINT HandTipRight
              {
                OFFSET -0.700487 -0.603022 -2.277090
                CHANNELS 3 Zrotation Xrotation Yrotation
                End Site
                {
                  OFFSET 0 0 0
                }
              }
              JOINT ThumbRight
              {
                OFFSET 1.980257 2.122100 -2.465413
                CHANNELS 3 Zrotation Xrotation Yrotation
                End Site
                {
                  OFFSET 0 0 0
                }
              }
            }
          }
        }
      }
    }
  }
  JOINT HipLeft
  {
    OFFSET -1.553422 1.622684 -6.424813
    CHANNELS 3 Zrotation Xrotation Yrotation
    JOINT KneeLeft
    {
      OFFSET -5.251123 -36.728471 -6.422710
      CHANNELS 3 Zrotation Xrotation Yrotation
      JOINT AnkleLeft
      {
        OFFSET -9.356817 -35.428247 -0.876394
        CHANNELS 3 Zrotation Xrotation Yrotation
        JOINT FootLeft
        {
          OFFSET 3.431781 -8.119560 -2.195813
          CHANNELS 3 Zrotation Xrotation Yrotation
          End Site
          {
            OFFSET 0 0 0
          }
        }
      }
    }
  }
  JOINT HipRight
  {
    OFFSET 2.618294 -0.318294 -1.228638
    CHANNELS 3 Zrotation Xrotation Yrotation
    JOINT KneeRight
    {
      OFFSET -6.798954 -39.815793 -2.904085
      CHANNELS 3 Zrotation Xrotation Yrotation
      JOINT AnkleRight
      {
        OFFSET -7.005137 -34.077592 -0.483590
        CHANNELS 3 Zrotation Xrotation Yrotation
        JOINT FootRight
        {
          OFFSET -1.097114 -0.032367 9.971922
          CHANNELS 3 Zrotation Xrotation Yrotation
          End Site
          {
            OFFSET 0 0 0
          }
        }
      }
    }
  }
}
MOTION
Frames: 5
Frame Time: 0.033333
-53.155464 79.040159 332.984317 0.000000 -0.000000 -51.240989 -0.000000 0.000000 51.240989 -0.000000 0.000000 0.000000 -0.000000 0.000000 0.000000 0.000000 0.000000 0.000000 -0.000000 0.000000 0.000000 -0.000000 0.000000 0.000000 -0.000000 0.000000 0.000000 -0.000000 0.000000 0.000000 0.000000 0.000000 0.000000 0.000000 0.000000 0.000000 -0.000000 0.000000 0.000000 -0.000000 0.000000 0.000000 -0.000000 0.000000 0.000000 -0.000000 0.000000 0.000000 0.000000 0.000000 0.000000 0.000000 0.000000 0.000000 -0.000000 0.000000 51.240989 -0.000000 0.000000 0.000000 -0.000000 0.000000 0.000000 0.000000 0.000000 0.000000 -0.000000 0.000000 51.240989 -0.000000 0.000000 0.000000 -0.000000 0.000000 0.000000 0.000000 0.000000 0.000000
-53.206255 79.118306 332.989859 -0.072346 -0.025699 -51.560924 0.024847 0.072643 51.560892 -0.000000 0.000000 0.000000 -0.000000 0.000000 0.000000 0.000000 0.000000 0.000000 -0.000000 0.000000 0.000000 -0.000000 0.000000 0.000000 -0.000000 0.000000 0.000000 -0.390169 -0.767523 -0.177290 0.000000 0.000000 0.000000 0.000000 0.000000 0.000000 -0.000000 0.000000 0.000000 -0.000000 0.000000 0.000000 -0.000000 0.000000 0.000000 -0.000000 0.000000 0.000000 0.000000 0.000000 0.000000 0.000000 0.000000 0.000000 0.024847 0.072643 51.560892 -0.000000 0.000000 0.000000 -0.788308 -1.040623 -0.235068 0.000000 0.000000 0.000000 0.024847 0.072643 51.560892 -0.000000 0.000000 0.000000 -0.000000 0.000000 0.000000 0.000000 0.000000 0.000000
-53.235619 79.174795 333.010510 -0.115716 -0.066383 -51.784204 0.019429 0.131983 51.784115 -0.000000 0.000000 0.000000 -1.170663 0.557597 0.410205 0.000000 0.000000 0.000000 -0.000000 0.000000 0.000000 -0.000000 0.000000 0.000000 -0.320812 -0.730349 -0.663286 -0.397842 -0.650888 0.344508 0.000000 0.000000 0.000000 0.000000 0.000000 0.000000 -0.000000 0.000000 0.000000 -0.000000 0.000000 0.000000 -0.000000 0.000000 0.000000 -0.000000 0.000000 0.000000 0.000000 0.000000 0.000000 0.000000 0.000000 0.000000 0.019429 0.131983 51.784115 -0.000000 0.000000 0.000000 -1.463305 -1.878242 -0.426349 0.000000 0.000000 0.000000 0.019429 0.131983 51.784115 -0.000000 0.000000 0.000000 0.095733 0.885846 0.378554 0.000000 0.000000 0.000000
-53.243555 79.209626 333.046271 -0.129917 -0.122059 -51.917937 -0.015944 0.177546 51.917824 -0.000000 0.000000 0.000000 -1.664772 0.786296 0.587290 0.000000 0.000000 0.000000 -0.000000 0.000000 0.000000 -0.000000 0.000000 0.000000 -0.434178 -0.954978 -0.883733 -0.569256 -0.904701 0.450203 0.000000 0.000000 0.000000 0.000000 0.000000 0.000000 -0.000000 0.000000 0.000000 -0.000000 0.000000 0.000000 -0.000000 0.000000 0.000000 -0.000000 0.000000 0.000000 0.000000 0.000000 0.000000 0.000000 0.000000 0.000000 -0.015944 0.177546 51.917824 -0.000000 0.000000 0.000000 -2.015807 -2.504374 -0.565061 0.000000 0.000000 0.000000 -0.015944 0.177546 51.917824 -0.000000 0.000000 0.000000 0.119511 1.112056 0.432897 0.000000 0.000000 0.000000
-53.230065 79.222799 333.097141 -0.114840 -0.192690 -51.965836 -0.081014 0.209175 51.965791 -0.000000 0.000000 0.000000 -2.102166 0.984426 0.746224 0.000000 0.000000 0.000000 -0.000000 0.000000 0.000000 -0.000000 0.000000 0.000000 -0.510875 -1.076888 -1.021092 -0.739663 -1.143376 0.497735 0.000000 0.000000 0.000000 0.000000 0.000000 0.000000 -0.420458 0.592949 0.567857 0.414584 -0.597071 -0.563522 -0.000000 0.000000 0.000000 -0.000000 0.000000 0.000000 0.000000 0.000000 0.000000 0.000000 0.000000 0.000000 -0.081014 0.209175 51.965791 -0.000000 0.000000 0.000000 -2.438642 -2.913151 -0.644168 0.000000 0.000000 0.000000 -0.081014 0.209175 51.965791 -0.000000 0.000000 0.000000 0.128372 1.193044 0.397259 0.000000 0.000000 0.000000
